<?xml version="1.0" encoding="utf-8"?>
<!-- Uploaded to: SVG Repo, www.svgrepo.com, Generator: SVG Repo Mixer Tools -->
<svg width="800px" height="800px" viewBox="-99.53 0 537.84 537.84" xmlns="http://www.w3.org/2000/svg">
  <g id="Group_14" data-name="Group 14" transform="translate(-1752.086 -2310.279)">
    <path id="path302" d="M1321.607-1243.357v73.148h242.829l-6.947-77.485s43.04-15.348,43.373-64.392-33.12-113.231-65.053-144.137c-25.28-24.453-62.347-34.373-98.093-34.906a208.766,208.766,0,0,0-34.387,2.347,102.892,102.892,0,0,0-14.453,3.093,129.254,129.254,0,0,0-52.92,31.8c-46.712,46.053-65.4,108.44-60.725,150.812s46.376,59.721,46.376,59.721" transform="translate(490 4018.328)" fill="#4f334b"/>
    <path id="path304" d="M1468.9-1170.209l11.16-315.534c-55.333-15.787-96.293,1.733-96.293,1.733l18.8,313.8H1468.9" transform="translate(490 4018.328)" fill="#e5e5e5"/>
    <path id="path306" d="M1494.583-1481.29l10.12,81.16-10.12,14.88,7.08,6.08-30.333,140.329,3.293-248.182s12.227,2.653,19.96,5.733" transform="translate(490 4018.328)" fill="#6b4668"/>
    <path id="path308" d="M1374.863-1481.29l-10.12,81.16,10.12,14.88-7.093,6.08,30.333,140.329-3.293-248.182s-12.227,2.653-19.947,5.733" transform="translate(490 4018.328)" fill="#6b4668"/>
    <path id="path310" d="M1321.607-1243.357s99.162,7.649,151.242-49.725l-40.933-45.168s-56.146,33.148-104.642,34.16c0,0-21.7,31.615-5.667,60.733" transform="translate(490 4018.328)" fill="#4f334b"/>
    <path id="path312" d="M1448.543-1502.33s-28.88-1.507-43.187,3.507-22.146,7.373-23.853,11.8,24.347,46.707,24.347,46.707l18.08-12.307,10.8,4.267h3.027l10.8-4.267,18.08,12.307s26.066-42.293,24.36-46.707-9.547-6.773-23.853-11.8-43.187-3.507-43.187-3.507h24.587" transform="translate(490 4018.328)" fill="#ffffff"/>
    <path id="path314" d="M1429.73-1452.117s-11.093,11.667-10.947,13.613l6.68,15-25.36,159.445,36.16,45.948,32.893-38.918S1445.3-1421.983,1446.05-1424s5.773-15.32,5.773-15.32l-9.04-12.8H1429.73" transform="translate(490 4018.328)" fill="#4f334b"/>
    <path id="path316" d="M1463.4-1491.01l-.013,3.987s1,29.88-27.133,29.88c-32.013,0-29.613-32.106-29.613-32.106v-46.733h56.84l-.08,44.973" transform="translate(490 4018.328)" fill="#f7966c"/>
    <path id="path318" d="M1419.557-1332.5c.067-2.975.12-10.615-.906-10.868-16.44-4.16-33.84-8.6-50.8-9.8-25.213-1.787-46.159,8.4-47.524,10.373s2.96,4.707,7.731,3.28c0,0-7.164,4.387-6.036,6.787s6.908,2.337,6.908,2.337-.591,3.361,3.9,4.527,13.339,1.667,15.859,2.528c6.627,2.267,13.707,2.543,20.027,5.327a39.066,39.066,0,0,0,25.707,2.005q6.58-1.788,13.333-2.953c2.733-.472,7.84-.1,9.893-2.261,2.093-2.192,1.787-7.469,1.88-10.237.013-.181.013-.548.027-1.044" transform="translate(490 4018.328)" fill="#f7966c"/>
    <path id="path320" d="M1365.69-1337.65c-7.56-3.04-17.387-3.347-24.28-3.067a108.627,108.627,0,0,0-13.327,1.347l-.052-.28a107.438,107.438,0,0,1,13.365-1.36c6.933-.28,16.8.04,24.4,3.093l-.107.267" transform="translate(490 4018.328)" fill="#e2474d"/>
    <path id="path322" d="M1366.69-1346.983c-10.64-4.507-32.08-2.053-32.293-2.027l-.04-.293c.213-.027,21.747-2.48,32.44,2.053l-.107.267" transform="translate(490 4018.328)" fill="#e2474d"/>
    <path id="path324" d="M1366.5-1328.122c-17.813-8.408-37.333-2.195-37.529-2.131l-.091-.28c.2-.065,19.82-6.317,37.74,2.144l-.12.267" transform="translate(490 4018.328)" fill="#e2474d"/>
    <path id="path326" d="M1548.636-1335.117s-29.253,14.272-47.76,11.311-98.827-37.391-98.827-37.391-18.427,37.02-18.28,60.34c0,0,49.987,45.343,90.026,50.618s83.693,2.544,83.693,2.544,35.187-84.664-8.853-87.422" transform="translate(490 4018.328)" fill="#4f334b"/>
    <path id="path328" d="M1504.676-1323.607c-2.347,0-3.733-.049-3.8-.052l-.147-.153.16-.141c.333.013,34.427,1.233,56.133-8.891l.187.072-.067.2c-17.467,8.148-42.907,8.969-52.466,8.969" transform="translate(490 4018.328)" fill="#ffffff"/>
    <path id="path330" d="M1452.41-1340.477s32.427-14.88,55.253-14.053,40.667,12.12,41.707,14.053-3.107,3.987-7.267,2.227c0,0,6.027,4.68,4.773,6.757s-6.427,1.453-6.427,1.453.2,3.113-3.947,3.736-12.147.217-14.493.755-15.573,3-21.133,1.743c-22.68-5.125-48.467-16.671-48.467-16.671" transform="translate(490 4018.328)" fill="#f7966c"/>
    <path id="path332" d="M1542.063-1338.1c-.2-.053-20.4-5.973-33.947-2.093l-.08-.28c13.64-3.907,33.906,2.027,34.106,2.093l-.08.28" transform="translate(490 4018.328)" fill="#e2474d"/>
    <path id="path334" d="M1537.33-1347.477c-.2-.04-19.227-4.36-29.213-1.307l-.08-.28c10.053-3.08,29.16,1.253,29.36,1.293l-.067.293" transform="translate(490 4018.328)" fill="#e2474d"/>
    <path id="path336" d="M1540.383-1329.9c-.16-.076-17.107-7.625-33.906-1.712l-.107-.279c16.92-5.955,33.973,1.645,34.133,1.723l-.12.268" transform="translate(490 4018.328)" fill="#e2474d"/>
    <path id="path338" d="M1332.994-1242.746c-7.041,0-11.251-.3-11.409-.315l-.237-.153-.136-.248a.3.3,0,0,1,.119-.4.3.3,0,0,1,.4.119l.057.105c3.531.236,63.153,3.783,112.78-21.257a.3.3,0,0,1,.4.132.292.292,0,0,1-.133.4c-37.893,19.119-81.586,21.621-101.842,21.621" transform="translate(490 4018.328)" fill="#ffffff"/>
    <path id="path340" d="M1529.863-1246.7c-15.867,0-36.493-.656-56.106-3.24-39.68-5.228-89.693-50.24-90.187-50.693l-.107-.219a70.231,70.231,0,0,1,1.693-14.531.3.3,0,0,1,.347-.229.309.309,0,0,1,.24.351,69.5,69.5,0,0,0-1.68,14.275c2.493,2.239,51.106,45.363,89.773,50.457,39.547,5.211,83.2,2.567,83.64,2.541a.277.277,0,0,1,.307.277.289.289,0,0,1-.28.315c-.213.015-11.467.7-27.64.7" transform="translate(490 4018.328)" fill="#ffffff"/>
    <path id="path342" d="M1384.917-1312.3l-.093-.016c-.453-.155-45.92-15.5-76.229-10.836a.291.291,0,0,1-.337-.248.3.3,0,0,1,.248-.339c30.439-4.7,76.052,10.7,76.505,10.86a.294.294,0,0,1,.187.377.3.3,0,0,1-.28.2" transform="translate(490 4018.328)" fill="#ffffff"/>
    <path id="path344" d="M1452.41-1340.183l-.12-.013L1414.6-1355.57a.306.306,0,0,1-.173-.387.309.309,0,0,1,.4-.16l37.693,15.36a.288.288,0,0,1,.16.387l-.267.187" transform="translate(490 4018.328)" fill="#ffffff"/>
    <path id="path346" d="M1463.476-1535.983l-.08,44.973c-7.173,3.72-18.12,8.107-28.36,6.92-17.16-1.987-28.4-18.16-28.4-18.16v-33.733h56.84" transform="translate(490 4018.328)" fill="#e62"/>
    <path id="path348" d="M1496.183-1575.276a94.472,94.472,0,0,1-.027,32.293,49.234,49.234,0,0,1-4.333,14.707c-2.347,4.573-5.987,8.627-10.707,10.653a403.03,403.03,0,0,1-5.24-44.906q-.68-11.28-.707-22.6c-.013-5.04-1.707-15.227,5.88-15.707,9.947-.627,13.88,18.84,15.133,25.56" transform="translate(490 4018.328)" fill="#6a3b1a"/>
    <path id="path350" d="M1374.237-1550.17c.227,8.733,1.933,17.667,6.653,25.013s12.88,12.88,21.613,12.813q-3.56-23.6-4.947-47.453c-.347-5.813-.613-11.64-1.453-17.4-.653-4.467-1.427-12.96-4.947-16.2-7.506-6.893-14.027,19.067-14.933,23.107a82.937,82.937,0,0,0-1.987,20.12" transform="translate(490 4018.328)" fill="#6a3b1a"/>
    <path id="path352" d="M1490.383-1558.743a12.919,12.919,0,0,1,11.2,7.027,15.66,15.66,0,0,1,.08,13.44,19.879,19.879,0,0,1-9.773,9.507,10.309,10.309,0,0,1-6.707,1.107,9.806,9.806,0,0,1-5.733-4.733c-5.307-8.707-1.413-26.24,10.933-26.346" transform="translate(490 4018.328)" fill="#f7966c"/>
    <path id="path354" d="M1482.436-1549.823a13.432,13.432,0,0,0-1.04,11.107c.587,1.813,1.693,3.68,3.52,4.2a4.613,4.613,0,0,0,4.173-1.213,9.51,9.51,0,0,0,2.307-3.84c1.293-3.52,2.653-10.4.253-13.76s-7.787,1.227-9.213,3.507" transform="translate(490 4018.328)" fill="#e62"/>
    <path id="path356" d="M1487.583-1531.023a12.885,12.885,0,0,1-7.04-13.667c.493-3.44,2.893-7.787,6.507-9.44a6.69,6.69,0,0,1,6.64.56,7.818,7.818,0,0,1,3.293,8.653l-.48-.147a7.286,7.286,0,0,0-3.08-8.08,6.186,6.186,0,0,0-6.16-.533c-3.467,1.573-5.76,5.76-6.227,9.067a12.357,12.357,0,0,0,6.76,13.133l-.213.453" transform="translate(490 4018.328)" fill="#e2474d"/>
    <path id="path358" d="M1379.37-1558.743a12.9,12.9,0,0,0-11.187,7.027,15.613,15.613,0,0,0-.08,13.44,19.906,19.906,0,0,0,9.76,9.507,10.334,10.334,0,0,0,6.72,1.107,9.885,9.885,0,0,0,5.733-4.733c5.293-8.707,1.4-26.24-10.947-26.346" transform="translate(490 4018.328)" fill="#f7966c"/>
    <path id="path360" d="M1387.317-1549.823a13.386,13.386,0,0,1,1.053,11.107c-.6,1.813-1.693,3.68-3.533,4.2a4.578,4.578,0,0,1-4.16-1.213,9.686,9.686,0,0,1-2.32-3.84c-1.28-3.52-2.653-10.4-.253-13.76s7.787,1.227,9.213,3.507" transform="translate(490 4018.328)" fill="#e62"/>
    <path id="path362" d="M1382.17-1531.023l-.2-.453a12.376,12.376,0,0,0,6.76-13.133c-.48-3.307-2.773-7.493-6.227-9.067a6.18,6.18,0,0,0-6.16.533,7.274,7.274,0,0,0-3.093,8.08l-.467.147a7.786,7.786,0,0,1,3.293-8.653,6.667,6.667,0,0,1,6.627-.56c3.627,1.653,6.013,6,6.507,9.44a12.867,12.867,0,0,1-7.04,13.667" transform="translate(490 4018.328)" fill="#e2474d"/>
    <path id="path364" d="M1486.276-1526.276c-3.307,19.107-34.253,35.12-50.093,35.706s-40.613-15.533-47.893-34.64c-3.867-10.107-3.347-27.373-.547-42.853,2.493-13.787,6.8-26.16,11.467-30.92,9.92-10.08,65.84-31.2,86.146,11.333,0,0,1.4,14.107,1.96,29.707.413,11.413.36,23.613-1.04,31.667" transform="translate(490 4018.328)" fill="#f7966c"/>
    <path id="path366" d="M1487.317-1557.943q-4.66-1.52-10.173-3.52c-33.24-12.027-82.907,0-82.907,0l-6.493-6.6c2.493-13.787,6.8-26.16,11.467-30.92,9.92-10.08,65.84-31.2,86.146,11.333,0,0,1.4,14.107,1.96,29.707" transform="translate(490 4018.328)" fill="#e62"/>
    <path id="path368" d="M1490.13-1597.676a47.912,47.912,0,0,1,3.053,16.147c.187,6.867-.747,13.693-1.68,20.493q-2,14.54-4.013,29.106c.12-.84-7.493-7.547-8.44-8.893a30.933,30.933,0,0,1-4.973-12.067c-1.973-10.373-3.92-19.733.293-30,.52-1.267-16.773-6.266-18.4-6.587a69.112,69.112,0,0,0-20.96-.987c-6.52.693-12.547,3.2-19.027,3.027a87.19,87.19,0,0,0-23.32,2.947c3.4-.867,5.533,23.107,5.413,25.44-.52,9.253-3.933,16.747-8.16,24.773-.64,1.213-2.973,5.173-2.373,6.56-4.827-11.253-9.133-22.867-10.493-35.027-2.107-18.867,4.387-38.853,20.56-49.853,9.56-6.507,21.36-8.827,32.893-9.773,10.6-.854,21.453-.64,31.613,2.506a55.1,55.1,0,0,1,22.387,13.413,25.785,25.785,0,0,1,5.627,8.773" transform="translate(490 4018.328)" fill="#6a3b1a"/>
    <path id="path370" d="M1378.89-1573.023l-64.705-39.707,138.825-58.146,92.84,71.053-45.467,19.494s-95.413-11.573-121.493,7.307" transform="translate(490 4018.328)" fill="#4f334b"/>
    <path id="path372" d="M1374.583-1558.663s31.64-27.973,74.293-22.12,49.146,25.24,49.146,25.24l5.12-53.773s-27.893-24.987-71.493-21.573-64.187,23.56-64.187,23.56l7.12,48.667" transform="translate(490 4018.328)" fill="#6b4668"/>
    <path id="path910" d="M1316.377-1708.049h0" transform="translate(490 4018.328)" fill="#ffffff"/>
  </g>
</svg>