<svg width="520" height="181" viewBox="0 0 520 181" version="1.1" xmlns="http://www.w3.org/2000/svg" xmlns:xlink="http://www.w3.org/1999/xlink"><defs><path id="a" d="M0 0h22v10H0z"/></defs><g stroke="none" stroke-width="1" fill="none" fill-rule="evenodd"><path d="M171.96 9.617l1.746 2.692c.314.484.912.716 1.482.574l3.163-.789c1.273-.317 2.219 1.14 1.38 2.128l-2.084 2.452a1.298 1.298 0 00-.101 1.553l1.746 2.69c.703 1.084-.426 2.413-1.647 1.94l-3.034-1.177a1.379 1.379 0 00-1.546.386l-2.083 2.452c-.839.987-2.482.35-2.399-.93l.21-3.178a1.322 1.322 0 00-.854-1.315l-3.034-1.176c-1.221-.473-1.108-2.195.165-2.513l3.163-.788c.57-.142.98-.626 1.018-1.198l.208-3.18c.084-1.279 1.797-1.706 2.5-.623" fill="#FBBC03"/><path fill="#C8CBCE" opacity=".5" d="M425.049 163l4.145 18 13.855-14.209z"/><path fill="#E3E4E6" d="M10.049 41l-10 18h20z"/><path d="M321.526 109.247l-1.741-1.281a2.44 2.44 0 010-3.932l1.74-1.281a3.74 3.74 0 10-5.229-5.23l-1.281 1.741a2.441 2.441 0 01-3.932 0l-1.281-1.74a3.74 3.74 0 10-5.23 5.229l1.741 1.28a2.441 2.441 0 010 3.933l-1.74 1.281a3.74 3.74 0 105.229 5.23l1.281-1.742a2.441 2.441 0 013.932 0l1.281 1.742a3.74 3.74 0 105.23-5.23" fill="#34A853"/><path d="M503.032 30.505c7.424 1.69 13.753 7.168 16.929 14.657l-5.283 2.244c-2.339-5.513-7-9.548-12.468-10.792l.822-6.109z" fill="#4285F4"/><g fill="#C8CBCE"><path d="M321.312 10.8c-.96 0-1.737-.806-1.737-1.8s.778-1.8 1.737-1.8c.96 0 1.737.806 1.737 1.8s-.778 1.8-1.737 1.8M308.575 7.2c-.96 0-1.737-.806-1.737-1.8s.778-1.8 1.737-1.8c.96 0 1.737.806 1.737 1.8s-.778 1.8-1.737 1.8M308.575 14.4c-.96 0-1.737-.806-1.737-1.8s.778-1.8 1.737-1.8c.96 0 1.737.806 1.737 1.8s-.778 1.8-1.737 1.8M314.365 10.8c-.96 0-1.737-.806-1.737-1.8s.778-1.8 1.737-1.8c.96 0 1.737.806 1.737 1.8s-.778 1.8-1.737 1.8M316.68 18c-.959 0-1.736-.806-1.736-1.8s.777-1.8 1.737-1.8c.959 0 1.736.806 1.736 1.8s-.777 1.8-1.736 1.8M316.68 3.6c-.959 0-1.736-.806-1.736-1.8S315.72 0 316.68 0c.959 0 1.736.806 1.736 1.8s-.777 1.8-1.736 1.8M302.786 10.8c-.96 0-1.737-.806-1.737-1.8s.777-1.8 1.737-1.8c.959 0 1.737.806 1.737 1.8s-.778 1.8-1.737 1.8"/></g><g transform="translate(140.049 134)"><mask id="b" fill="#fff"><use xlink:href="#a"/></mask><path d="M11 0C4.925 0 0 4.477 0 10h22c0-5.523-4.925-10-11-10" fill="#4285F4" mask="url(#b)"/></g></g></svg>